<?xml version="1.0"?>
<svg fill="#000000" id="Layer_1" data-name="Layer 1" xmlns="http://www.w3.org/2000/svg" viewBox="0 0 1080 760">
  <path d="M502.01,54.78C506.87,26.16,484.82.05,455.8.05H46.91C15.09.05-7.49,31.09,2.31,61.37l215.63,666.14c6.26,19.34,24.27,32.44,44.6,32.44h175.6c34.18,0,56.88-35.41,42.59-66.47l-57.66-125.36c-3.94-8.57-5.21-18.14-3.63-27.44L502.01,54.78Z"></path>
  <path d="M645.38.05h-37.08c-22.86,0-42.39,16.49-46.22,39.03l-50.77,298.75-34.48,202.85c-1.58,9.31-.32,18.87,3.63,27.45l30.85,67.04,44.85,97.5c7.65,16.63,24.28,27.29,42.59,27.29h218.72c20.33,0,38.34-13.1,44.6-32.44L1077.69,61.37C1087.49,31.09,1064.91.05,1033.09.05h-387.7Z"></path>
</svg>